<svg xmlns="http://www.w3.org/2000/svg" xmlns:xlink="http://www.w3.org/1999/xlink" width="24" height="24" viewBox="0 0 24 24"><defs><style>.a{clip-path:url(#b);}.b{fill-rule:evenodd;}</style><clipPath id="b"><rect width="24" height="24"/></clipPath></defs><g id="a" class="a"><g transform="translate(8 10)"><g transform="translate(0 0)"><g transform="translate(0)"><g transform="translate(0 0)"><g transform="translate(0 0)"><path class="b" d="M62.477,2.325l3.234,3.234a.4.4,0,0,1,0,.567l-.367.367a.417.417,0,0,1-.283.125.359.359,0,0,1-.283-.108L62.193,3.925,59.61,6.509a.359.359,0,0,1-.283.108.417.417,0,0,1-.283-.125l-.367-.367a.4.4,0,0,1,0-.567L61.91,2.325a.368.368,0,0,1,.567,0Z" transform="translate(-58.56 -2.191)"/></g></g></g></g></g></g></svg>