<svg xmlns="http://www.w3.org/2000/svg" xmlns:xlink="http://www.w3.org/1999/xlink" width="24" height="24" viewBox="0 0 24 24"><defs><style>.a{clip-path:url(#b);}.b{fill-rule:evenodd;}</style><clipPath id="b"><rect width="24" height="24"/></clipPath></defs><g id="a" class="a"><g transform="translate(5 8)"><g transform="translate(0 0)"><g transform="translate(0 0)"><path class="b" d="M165.618,1.633a.368.368,0,0,1,.567,0L170.052,5.5a.333.333,0,0,1,0,.533L166.185,9.9a.368.368,0,0,1-.567,0l-.233-.233a.317.317,0,0,1-.133-.267.415.415,0,0,1,.133-.3l2.8-2.767H155.65a.4.4,0,0,1-.4-.4V5.6a.4.4,0,0,1,.4-.4h12.535l-2.8-2.767a.415.415,0,0,1-.133-.3.317.317,0,0,1,.133-.267Z" transform="translate(-155.25 -1.5)"/></g></g></g></g></svg>