<svg xmlns="http://www.w3.org/2000/svg" xmlns:xlink="http://www.w3.org/1999/xlink" width="24" height="24" viewBox="0 0 24 24"><defs><style>.a{clip-path:url(#b);}.b{fill-rule:evenodd;}</style><clipPath id="b"><rect width="24" height="24"/></clipPath></defs><g id="a" class="a"><g transform="translate(9 7.264)"><g transform="translate(0 0)"><path class="b" d="M28.95,196.591a.8.8,0,0,1,.384.447.856.856,0,0,1,0,.572.8.8,0,0,1-.384.447l-6.289,3.716a.806.806,0,0,1-.572.107.862.862,0,0,1-.509-.286.808.808,0,0,1-.205-.554v-7.432a.8.8,0,0,1,.214-.581.877.877,0,0,1,.518-.268.782.782,0,0,1,.554.116Z" transform="translate(-21.375 -192.749)"/></g></g></g></svg>