<svg xmlns="http://www.w3.org/2000/svg" xmlns:xlink="http://www.w3.org/1999/xlink" width="24" height="24" viewBox="0 0 24 24"><defs><style>.a{clip-path:url(#b);}.b{fill-rule:evenodd;}</style><clipPath id="b"><rect width="24" height="24"/></clipPath></defs><g id="a" class="a"><g transform="translate(1 6.086)"><g transform="translate(0 0)"><path class="b" d="M6.976,14.352a.552.552,0,0,1-.85,0l-5.8-5.8a.5.5,0,0,1,0-.8l5.8-5.8a.552.552,0,0,1,.85,0l.35.35a.475.475,0,0,1,.2.4.622.622,0,0,1-.2.45L3.125,7.3h18.8a.6.6,0,0,1,.6.6v.5a.6.6,0,0,1-.6.6H3.125l4.2,4.151a.622.622,0,0,1,.2.45.475.475,0,0,1-.2.4Z" transform="translate(-0.125 -1.75)"/></g></g></g></svg>