<svg xmlns="http://www.w3.org/2000/svg" xmlns:xlink="http://www.w3.org/1999/xlink" width="24" height="24" viewBox="0 0 24 24"><defs><style>.a{clip-path:url(#b);}.b{fill-rule:evenodd;}</style><clipPath id="b"><rect width="24" height="24"/></clipPath></defs><g id="a" class="a"><g transform="translate(5 8)"><g transform="translate(0 0)"><g transform="translate(0 0)"><path class="b" d="M4.817,9.9a.368.368,0,0,1-.567,0L.383,6.034a.333.333,0,0,1,0-.533L4.251,1.633a.368.368,0,0,1,.567,0l.233.233a.317.317,0,0,1,.133.267.415.415,0,0,1-.133.3L2.25,5.2H14.785a.4.4,0,0,1,.4.4v.333a.4.4,0,0,1-.4.4H2.25L5.051,9.1a.415.415,0,0,1,.133.3.317.317,0,0,1-.133.267Z" transform="translate(-0.25 -1.5)"/></g></g></g></g></svg>