<svg xmlns="http://www.w3.org/2000/svg" xmlns:xlink="http://www.w3.org/1999/xlink" width="24" height="24" viewBox="0 0 24 24"><defs><style>.a{clip-path:url(#b);}.b{fill-rule:evenodd;}</style><clipPath id="b"><rect width="24" height="24"/></clipPath></defs><g id="a" class="a"><g transform="translate(3 5)"><g transform="translate(0 0)"><path class="b" d="M145.271,14.317a5.2,5.2,0,0,1,1.634,2.467,4.88,4.88,0,0,1,0,2.65,5.182,5.182,0,0,1-1.267,2.284L139.8,27.652a1.771,1.771,0,0,1-2.534,0l-5.834-5.934a5.182,5.182,0,0,1-1.267-2.284,4.673,4.673,0,0,1,.033-2.65,4.973,4.973,0,0,1,1.6-2.467,4.331,4.331,0,0,1,2.167-1,5.116,5.116,0,0,1,2.45.2,5.288,5.288,0,0,1,2.117,1.3,5.288,5.288,0,0,1,2.117-1.3,5.116,5.116,0,0,1,2.45-.2A4.331,4.331,0,0,1,145.271,14.317Zm-.767,6.268a3.581,3.581,0,0,0,.85-1.55,3.259,3.259,0,0,0-.017-1.817,3.293,3.293,0,0,0-1.1-1.667,3.081,3.081,0,0,0-2.284-.7,3.391,3.391,0,0,0-2.25,1.067l-1.167,1.167-1.167-1.167a3.391,3.391,0,0,0-2.25-1.067,3.081,3.081,0,0,0-2.284.7,3.293,3.293,0,0,0-1.1,1.667,3.259,3.259,0,0,0-.017,1.817,3.581,3.581,0,0,0,.85,1.55l5.868,5.934q.1.133.2,0Z" transform="translate(-129.994 -13.25)"/></g></g></g></svg>