<svg xmlns="http://www.w3.org/2000/svg" xmlns:xlink="http://www.w3.org/1999/xlink" width="24" height="24" viewBox="0 0 24 24"><defs><style>.a{clip-path:url(#b);}.b{fill-rule:evenodd;}</style><clipPath id="b"><rect width="24" height="24"/></clipPath></defs><g id="a" class="a"><g transform="translate(5 3)"><g transform="translate(0 0)"><g transform="translate(0 0)"><g transform="translate(0 0)"><path class="b" d="M163.985,16.767h3.2V26.9a2.675,2.675,0,0,1-2.667,2.667h-9.6A2.675,2.675,0,0,1,152.25,26.9V16.767h3.2a4.231,4.231,0,0,1,.567-2.15,4.151,4.151,0,0,1,1.55-1.55,4.363,4.363,0,0,1,4.3,0,4.151,4.151,0,0,1,1.55,1.55A4.231,4.231,0,0,1,163.985,16.767ZM159.718,14.1a2.675,2.675,0,0,0-2.667,2.667h5.334a2.675,2.675,0,0,0-2.667-2.667Zm5.868,12.8V18.368h-1.6V19.7a.8.8,0,1,1-1.6,0V18.368h-5.334V19.7a.8.8,0,1,1-1.6,0V18.368h-1.6V26.9a1.082,1.082,0,0,0,1.067,1.067h9.6a1.082,1.082,0,0,0,1.067-1.067Z" transform="translate(-152.25 -12.5)"/></g></g></g></g></g></svg>