<svg xmlns="http://www.w3.org/2000/svg" xmlns:xlink="http://www.w3.org/1999/xlink" width="80" height="24" viewBox="0 0 80 24"><defs><style>.a{clip-path:url(#b);}.b{fill:#040404;}</style><clipPath id="b"><rect width="80" height="24"/></clipPath></defs><g id="a" class="a"><g transform="translate(0.344 0.331)"><g transform="translate(0 0)"><path class="b" d="M5.539,24.8a.372.372,0,1,1-.157.622A.378.378,0,0,1,5.539,24.8Zm26.731.217a1.554,1.554,0,0,1,1.219-.183c-.026.16-.057.32-.086.48a.984.984,0,0,0-.785.064,1.056,1.056,0,0,0-.235.824c.277.006.555,0,.832,0v.484c-.275,0-.55,0-.825,0q0,1.555,0,3.109c-.171,0-.339,0-.509,0,0-1.035,0-2.07,0-3.105-.248-.006-.5,0-.744,0q0-.243,0-.486c.247,0,.495,0,.743,0A1.39,1.39,0,0,1,32.269,25.018Zm9.795-.223h.512c0,.653,0,1.306,0,1.958a1.469,1.469,0,0,1,1.2-.634,1.237,1.237,0,0,1,1.07.47,2.329,2.329,0,0,1,.247,1.36V29.8c-.172,0-.343,0-.513,0,0-.66,0-1.322,0-1.981a1.476,1.476,0,0,0-.283-1,1.014,1.014,0,0,0-1.285.019,1.437,1.437,0,0,0-.439,1.123c0,.614,0,1.229,0,1.842-.172,0-.342.006-.512,0Zm4.5.026a.372.372,0,1,1-.067.637A.385.385,0,0,1,46.568,24.821Zm23.208,0a.373.373,0,0,1,.524.384.368.368,0,0,1-.633.215A.375.375,0,0,1,69.777,24.82Zm-2.032.03c.171,0,.341-.008.512,0V29.8c-.17,0-.339,0-.509,0C67.742,28.152,67.749,26.5,67.744,24.85Zm-60.322,1.6a1.613,1.613,0,0,1,1.38-.3,1.173,1.173,0,0,1,.8.605c-.151.111-.306.216-.462.318a.874.874,0,0,0-1.332-.294.458.458,0,0,0,.07.722c.472.263,1.08.187,1.5.551a1.016,1.016,0,0,1-.128,1.595,1.941,1.941,0,0,1-1.207.2,1.386,1.386,0,0,1-1.076-.664c.146-.106.3-.208.447-.307a1.089,1.089,0,0,0,1.468.4A.494.494,0,0,0,9.02,28.5a2.48,2.48,0,0,0-.98-.344,1.159,1.159,0,0,1-.88-.641A1.027,1.027,0,0,1,7.422,26.454Zm3.559.262a1.819,1.819,0,0,1,2.727.03c-.139.111-.283.214-.423.324a1.181,1.181,0,0,0-1.8-.115,1.585,1.585,0,0,0,.119,2.207,1.185,1.185,0,0,0,1.689-.218c.14.108.282.215.419.329a1.6,1.6,0,0,1-1.063.578,2.045,2.045,0,0,1-1.244-.2A2.024,2.024,0,0,1,10.981,26.716Zm16.814-.471a1.592,1.592,0,0,1,.951-.1c-.028.174-.063.344-.095.516a1.386,1.386,0,0,0-.67.038,1.142,1.142,0,0,0-.7,1.047c0,.684.006,1.369,0,2.052-.169,0-.338,0-.507,0-.007-1.2.024-2.4-.036-3.594.171,0,.342,0,.514,0,0,.2,0,.409,0,.614A1.319,1.319,0,0,1,27.794,26.245Zm10.915.24a1.59,1.59,0,0,1,1.413-.328,1.177,1.177,0,0,1,.8.6c-.15.111-.305.216-.461.318a.876.876,0,0,0-1.328-.3.459.459,0,0,0,.065.727c.5.277,1.155.181,1.574.617a1.025,1.025,0,0,1,.2,1.043,1.137,1.137,0,0,1-1.086.691,2.086,2.086,0,0,1-.984-.123,1.57,1.57,0,0,1-.609-.545c.146-.107.3-.209.447-.308a1.087,1.087,0,0,0,1.5.372.49.49,0,0,0,.094-.753,2.5,2.5,0,0,0-.981-.343,1.154,1.154,0,0,1-.877-.641A1.033,1.033,0,0,1,38.71,26.485Zm14.793.269a1.539,1.539,0,0,1,1.024-.623,1.389,1.389,0,0,1,1.175.359,1.6,1.6,0,0,1,.325,1.06c0,.749,0,1.5,0,2.25-.172,0-.344.008-.514,0,0-.685,0-1.369,0-2.052a1.346,1.346,0,0,0-.31-.96,1.033,1.033,0,0,0-1.358.138,1.634,1.634,0,0,0-.341,1.094c0,.593,0,1.186,0,1.78h-.509c-.019-1.2.041-2.4-.036-3.595.177,0,.357,0,.537,0C53.5,26.388,53.5,26.571,53.5,26.754Zm10.333.005a1.521,1.521,0,0,1,1.048-.632,1.376,1.376,0,0,1,1.161.37,1.69,1.69,0,0,1,.317,1.115c0,.73,0,1.459,0,2.188-.171,0-.338,0-.509,0,0-.663,0-1.325,0-1.986a1.446,1.446,0,0,0-.3-1.019,1.027,1.027,0,0,0-1.414.192,1.651,1.651,0,0,0-.292,1.032c0,.593,0,1.186,0,1.782-.171,0-.34,0-.509,0-.021-1.2.038-2.4-.036-3.6h.534C63.839,26.39,63.839,26.574,63.835,26.759Zm8.231,0a1.457,1.457,0,0,1,1.249-.641,1.22,1.22,0,0,1,1.012.453,1.889,1.889,0,0,1,.261,1.112V29.8l-.51,0c-.009-.681.011-1.364-.01-2.045a1.3,1.3,0,0,0-.321-.98,1.034,1.034,0,0,0-1.408.231,1.607,1.607,0,0,0-.273.95c0,.614,0,1.229,0,1.843-.172,0-.342,0-.513,0-.013-1.2.037-2.4-.034-3.594.177,0,.356,0,.534,0C72.063,26.393,72.066,26.577,72.066,26.762ZM5.388,26.207c.171,0,.342,0,.514,0-.008,1.2,0,2.4,0,3.593H5.389Q5.387,28,5.388,26.207Zm13,0c.2,0,.4-.006.6,0a.846.846,0,0,1,.108.23q.509,1.391,1.031,2.776c.366-1,.745-2,1.113-3.009.2,0,.391,0,.588,0Q21.109,28,20.4,29.8H19.82Q19.11,28,18.388,26.206Zm28.078,0c.171,0,.341,0,.513,0-.006,1.2,0,2.4,0,3.594-.171,0-.339,0-.509,0Q46.464,28,46.466,26.206Zm23.209,0c.171,0,.341,0,.513,0-.006,1.2,0,2.4,0,3.594-.171,0-.339,0-.509,0ZM3.954,24.795c-.171,0-.342,0-.512,0,0,.66,0,1.321,0,1.981a1.857,1.857,0,0,0-2.695-.151,1.984,1.984,0,0,0,.083,2.833,1.69,1.69,0,0,0,1.28.4,1.556,1.556,0,0,0,1.331-.627c0,.191,0,.382,0,.573.169,0,.339,0,.508,0C3.957,28.134,3.952,26.465,3.954,24.795ZM3.07,29a1.386,1.386,0,0,1-1.811.15,1.55,1.55,0,0,1-.4-1.744,1.245,1.245,0,0,1,.82-.759,1.409,1.409,0,0,1,1.495.487A1.47,1.47,0,0,1,3.07,29Zm14.3-2.5a2.013,2.013,0,0,0-1.707-.316,1.726,1.726,0,0,0-.983.668,2.056,2.056,0,0,0-.19,1.981,1.752,1.752,0,0,0,1.2,1,4.78,4.78,0,0,0,.983,0A1.764,1.764,0,0,0,17.95,28.7,1.982,1.982,0,0,0,17.371,26.5Zm-.206,2.494a1.332,1.332,0,0,1-1.786.152,1.556,1.556,0,0,1-.4-1.715,1.256,1.256,0,0,1,.809-.78A1.336,1.336,0,0,1,17.152,27,1.588,1.588,0,0,1,17.166,28.993Zm8.481-.838a2.012,2.012,0,0,0-.5-1.569,1.751,1.751,0,0,0-2.108-.213,1.988,1.988,0,0,0-.743,2.324,1.761,1.761,0,0,0,1.185,1.127,3.9,3.9,0,0,0,.777.03,1.694,1.694,0,0,0,1.273-.726c-.13-.113-.265-.22-.4-.329a1.338,1.338,0,0,1-1.463.571,1.392,1.392,0,0,1-.949-1.214C23.694,28.153,24.67,28.155,25.646,28.155Zm-2.918-.439a1.273,1.273,0,0,1,1.14-1.119,1.124,1.124,0,0,1,.969.374,1.3,1.3,0,0,1,.261.745C24.309,27.72,23.518,27.718,22.728,27.716ZM37.3,26.207h-.514v.348a1.914,1.914,0,1,0-2.286,3.06,2.216,2.216,0,0,0,1.416.234,1.765,1.765,0,0,0,.87-.392c0,.114,0,.23,0,.345.169,0,.338,0,.507,0C37.308,28.606,37.3,27.407,37.3,26.207Zm-.941,2.923a1.339,1.339,0,0,1-1.689-.023,1.566,1.566,0,0,1-.358-1.667,1.273,1.273,0,0,1,.794-.785,1.325,1.325,0,0,1,1.435.41A1.564,1.564,0,0,1,36.363,29.13Zm14.869-2.592a1.987,1.987,0,0,0-1.745-.355,1.751,1.751,0,0,0-.964.629,1.985,1.985,0,0,0,.426,2.782,2.251,2.251,0,0,0,1.479.248,1.731,1.731,0,0,0,1.319-1.088A2,2,0,0,0,51.232,26.539Zm-.413,2.608a1.342,1.342,0,0,1-1.617,0,1.555,1.555,0,0,1-.362-1.82,1.236,1.236,0,0,1,.771-.679,1.328,1.328,0,0,1,1.362.358A1.553,1.553,0,0,1,50.818,29.147Zm10.836-2.612a1.992,1.992,0,0,0-1.75-.35,1.733,1.733,0,0,0-1.039.753,1.967,1.967,0,0,0,.561,2.686,2.214,2.214,0,0,0,1.421.222,1.737,1.737,0,0,0,1.362-1.194A1.979,1.979,0,0,0,61.654,26.534Zm-.245,2.457a1.332,1.332,0,0,1-1.749.183,1.546,1.546,0,0,1-.421-1.788,1.245,1.245,0,0,1,.787-.735A1.338,1.338,0,0,1,61.394,27,1.59,1.59,0,0,1,61.409,28.991Zm17.657-.836a1.953,1.953,0,0,0-.307-1.381,1.733,1.733,0,0,0-2.551-.181,2,2,0,0,0,.235,3.008,2.159,2.159,0,0,0,1.484.234,1.88,1.88,0,0,0,1.054-.7q-.194-.173-.395-.336a1.354,1.354,0,0,1-1.414.584,1.393,1.393,0,0,1-1-1.227C77.138,28.152,78.1,28.155,79.066,28.155Zm-2.885-.438a1.269,1.269,0,0,1,1.424-1.111,1.051,1.051,0,0,1,.746.441,1.379,1.379,0,0,1,.2.668C77.763,27.72,76.973,27.717,76.181,27.717Zm-2.553-17.7c-1.84-.652-3.811-.8-5.637-1.5A4.089,4.089,0,0,1,66.363,7.5a2.277,2.277,0,0,1,.788-3.58,5.1,5.1,0,0,1,2.606-.374,4.021,4.021,0,0,1,2.471,1,3.73,3.73,0,0,1,1.09,2.051c.023.2.164.416.386.4,1.432.015,2.864.037,4.3.034a.3.3,0,0,0,.341-.366,7.869,7.869,0,0,0-1.216-3.278A7.094,7.094,0,0,0,73.855.782,11.647,11.647,0,0,0,70.068,0H68.586A12.618,12.618,0,0,0,63.936,1,5.863,5.863,0,0,0,61.3,3.264a6.409,6.409,0,0,0-.844,3.281A11.812,11.812,0,0,0,57.144,2.44,11.366,11.366,0,0,0,50.68,0H49.469a11.046,11.046,0,0,0-4.6,1.313A12.1,12.1,0,0,0,39.954,6.34a8.3,8.3,0,0,0-.932-2.573,6.783,6.783,0,0,0-2.616-2.553A10.76,10.76,0,0,0,31.759,0H30.215a14.729,14.729,0,0,0-3.448.551,6.812,6.812,0,0,0-3.421,2.153,5.715,5.715,0,0,0-1.028,2.082c0-1.236,0-2.473,0-3.71A.472.472,0,0,0,22.2.69a.482.482,0,0,0-.38-.1c-1.3.006-2.592,0-3.887,0a.362.362,0,0,0-.357.359c-.02.356.007.712-.008,1.068a.209.209,0,0,1-.1.21A2.089,2.089,0,0,1,17.1,2,10.351,10.351,0,0,0,11.78,0H10.756A11.117,11.117,0,0,0,7.694.589,11.59,11.59,0,0,0,3.176,3.574,11.051,11.051,0,0,0,.238,9.142,14.293,14.293,0,0,0,0,11.042v1.3a11.919,11.919,0,0,0,.952,4.18,12.093,12.093,0,0,0,4.336,5.1,10.7,10.7,0,0,0,6.054,1.747,9.4,9.4,0,0,0,5.872-2.126c.092-.063.261-.241.343-.072.041.414-.007.832.02,1.248a.365.365,0,0,0,.35.358q2.019.006,4.037,0a.37.37,0,0,0,.353-.4c.007-1.217,0-2.435,0-3.652a7.479,7.479,0,0,0,1.6,2.325,8.235,8.235,0,0,0,4.228,2.063,17.614,17.614,0,0,0,3.926.249,14.374,14.374,0,0,0,4.091-.738,7.975,7.975,0,0,0,2.865-1.669,5.571,5.571,0,0,0,1.594-2.766,12.889,12.889,0,0,0,1.148,1.465,11.1,11.1,0,0,0,5.754,3.406,11.36,11.36,0,0,0,7.519-.762,11.87,11.87,0,0,0,5.165-4.965,7.762,7.762,0,0,0,1.8,3.465,7.285,7.285,0,0,0,2.791,1.84,14.5,14.5,0,0,0,5.692.723,13.694,13.694,0,0,0,4.623-.968,6.932,6.932,0,0,0,2.932-2.194,5.784,5.784,0,0,0,1.072-3.012V16.155a6.261,6.261,0,0,0-1.768-3.938A9.352,9.352,0,0,0,73.628,10.019ZM16.524,16.1a5.514,5.514,0,0,1-2.743,2.468,6.369,6.369,0,0,1-4.69.109,6.13,6.13,0,0,1-3.119-2.721,8.794,8.794,0,0,1-1-5A7.846,7.846,0,0,1,6.956,6.222,5.736,5.736,0,0,1,10.2,4.486a6.857,6.857,0,0,1,4.068.583,5.388,5.388,0,0,1,2.467,2.6,9.516,9.516,0,0,1,.755,3.814A9.3,9.3,0,0,1,16.524,16.1ZM35.114,18a2.927,2.927,0,0,1-1.457,1.257,5.46,5.46,0,0,1-2.341.346,4.984,4.984,0,0,1-3.305-1.178,4.267,4.267,0,0,1-1.24-2.437c-.018-.176-.136-.375-.333-.364-1.373-.045-2.747-.028-4.119-.07-.007-2.409.007-4.819-.007-7.229a5.518,5.518,0,0,0,.614,1.358,5.713,5.713,0,0,0,2.126,1.865A17.836,17.836,0,0,0,30.058,13.1a15.5,15.5,0,0,1,3.82,1.143,2.783,2.783,0,0,1,1.556,1.713A3.06,3.06,0,0,1,35.114,18Zm3.643-6.033a9.93,9.93,0,0,0-3.614-2C33.754,9.5,32.3,9.3,30.888,8.917a8.381,8.381,0,0,1-2.167-.84,2.5,2.5,0,0,1-1.127-1.319,2.353,2.353,0,0,1,.245-2.025,2.668,2.668,0,0,1,1.472-1.013,5.942,5.942,0,0,1,2.41-.143,3.817,3.817,0,0,1,2.245,1.046,3.711,3.711,0,0,1,1,1.963c.025.192.145.4.359.4,1.438.016,2.876.035,4.314.038A12.251,12.251,0,0,0,38.757,11.97Zm16.749,3.956A5.93,5.93,0,0,1,53,18.416a6.468,6.468,0,0,1-3.954.565,5.767,5.767,0,0,1-3-1.462,6.333,6.333,0,0,1-1.76-2.872,10.267,10.267,0,0,1-.354-4.171,7.358,7.358,0,0,1,1.8-4.188,5.884,5.884,0,0,1,3.66-1.847,6.316,6.316,0,0,1,3.458.551,6.061,6.061,0,0,1,2.7,2.638,8.688,8.688,0,0,1,.914,3.792A9.169,9.169,0,0,1,55.506,15.926Zm17.381,2.786a3.947,3.947,0,0,1-2.334.881,6.422,6.422,0,0,1-3.37-.578,3.823,3.823,0,0,1-1.833-2.143c-.144-.343-.177-.718-.29-1.068-.118-.249-.427-.165-.645-.195-1.149,0-2.3-.038-3.447-.035a13.034,13.034,0,0,0,.486-5.632,6.929,6.929,0,0,0,3.165,2.163c1.987.77,4.127.953,6.156,1.564a6.462,6.462,0,0,1,2.194,1.06,2.246,2.246,0,0,1,.841,1.388A2.968,2.968,0,0,1,72.886,18.712Z"/></g></g></g></svg>