<?xml version="1.0" encoding="UTF-8"?>
<svg width="6px" height="4px" viewBox="0 0 6 4" version="1.1" xmlns="http://www.w3.org/2000/svg" xmlns:xlink="http://www.w3.org/1999/xlink">
    <!-- Generator: Sketch 52.5 (67469) - http://www.bohemiancoding.com/sketch -->
    <title>arrow-mini-up</title>
    <desc>Created with Sketch.</desc>
    <g id="asos-shot" stroke="none" stroke-width="1" fill="none" fill-rule="evenodd">
        <g id="asos" transform="translate(-109.000000, -109.000000)" fill="#CCCCCC">
            <g id="Group-16" transform="translate(26.000000, 50.000000)">
                <g id="Group-15">
                    <g id="Padding-Group-7" transform="translate(0.000000, 37.000000)">
                        <g id="Group-8" transform="translate(25.000000, 20.000000)">
                            <path d="M61.3134977,2.28516511 L63.5869298,4.55859719 C63.6416172,4.61328462 63.6689609,4.67969059 63.6689609,4.75781546 C63.6689609,4.83594033 63.6416172,4.90234631 63.5869298,4.95703374 L63.3291179,5.21484562 C63.2744305,5.26953305 63.2080245,5.29882986 63.1298997,5.30273604 C63.0517748,5.30664222 62.9853688,5.28125177 62.9306814,5.22656434 L61.1142795,3.41016242 L59.2978775,5.22656434 C59.2431901,5.28125177 59.1767841,5.30664222 59.0986593,5.30273604 C59.0205344,5.29882986 58.9541284,5.26953305 58.899441,5.21484562 L58.6416291,4.95703374 C58.5869417,4.90234631 58.559598,4.83594033 58.559598,4.75781546 C58.559598,4.67969059 58.5869417,4.61328462 58.6416291,4.55859719 L60.9150612,2.28516511 C60.9697486,2.22266532 61.0361546,2.19141533 61.1142795,2.19141533 C61.1924043,2.19141533 61.2588103,2.22266532 61.3134977,2.28516511 Z" id="arrow-mini-up"></path>
                        </g>
                    </g>
                </g>
            </g>
        </g>
    </g>
</svg>