<?xml version="1.0" encoding="UTF-8"?>
<svg width="6px" height="4px" viewBox="0 0 6 4" version="1.1" xmlns="http://www.w3.org/2000/svg" xmlns:xlink="http://www.w3.org/1999/xlink">
    <!-- Generator: Sketch 52.5 (67469) - http://www.bohemiancoding.com/sketch -->
    <title>select-arrow-down</title>
    <desc>Created with Sketch.</desc>
    <g id="asos-shot" stroke="none" stroke-width="1" fill="none" fill-rule="evenodd">
        <g id="asos" transform="translate(-180.000000, -320.000000)" fill="#000000">
            <g id="Group-16" transform="translate(26.000000, 50.000000)">
                <g id="Group-15">
                    <g id="Group-10" transform="translate(0.000000, 229.000000)">
                        <path d="M156.800775,44.2148456 L154.527343,41.9414135 C154.472656,41.8867261 154.445312,41.8203201 154.445312,41.7421953 C154.445312,41.6640704 154.472656,41.5976644 154.527343,41.542977 L154.785155,41.2851651 C154.839843,41.2304777 154.906249,41.2011809 154.984374,41.1972747 C155.062498,41.1933685 155.128904,41.218759 155.183592,41.2734464 L156.999994,43.0898483 L158.816396,41.2734464 C158.871083,41.218759 158.937489,41.1933685 159.015614,41.1972747 C159.093739,41.2011809 159.160145,41.2304777 159.214832,41.2851651 L159.472644,41.542977 C159.527332,41.5976644 159.554675,41.6640704 159.554675,41.7421953 C159.554675,41.8203201 159.527332,41.8867261 159.472644,41.9414135 L157.199212,44.2148456 C157.144525,44.2773454 157.078119,44.3085954 156.999994,44.3085954 C156.921869,44.3085954 156.855463,44.2773454 156.800775,44.2148456 Z" id="select-arrow-down"></path>
                    </g>
                </g>
            </g>
        </g>
    </g>
</svg>