<?xml version="1.0" encoding="UTF-8"?>
<svg width="16px" height="10px" viewBox="0 0 16 10" version="1.1" xmlns="http://www.w3.org/2000/svg" xmlns:xlink="http://www.w3.org/1999/xlink">
    <!-- Generator: Sketch 52.5 (67469) - http://www.bohemiancoding.com/sketch -->
    <title>Arrow-Back</title>
    <desc>Created with Sketch.</desc>
    <g id="asos-shot" stroke="none" stroke-width="1" fill="none" fill-rule="evenodd">
        <g id="asos" transform="translate(-239.000000, -70.000000)" fill="#000000">
            <g id="Group-17" transform="translate(239.000000, 69.000000)">
                <path d="M4.94139477,10.6093807 C4.84764481,10.7031307 4.74803585,10.7500054 4.64256735,10.7500054 C4.53709886,10.7500054 4.4374899,10.7031307 4.34373994,10.6093807 L0.265624665,6.53126542 C0.171874709,6.46095309 0.125,6.36720314 0.125,6.25001609 C0.125,6.13282905 0.171874709,6.0390791 0.265624665,5.96876676 L4.34373994,1.89065149 C4.4374899,1.79690153 4.53709886,1.75002682 4.64256735,1.75002682 C4.74803585,1.75002682 4.84764481,1.79690153 4.94139477,1.89065149 L5.18748793,2.13674465 C5.28123789,2.20705698 5.32811259,2.30080694 5.32811259,2.41799398 C5.32811259,2.53518102 5.28123789,2.64064952 5.18748793,2.73439948 L2.23436997,5.65236127 L15.4530885,5.65236127 C15.5702755,5.65236127 15.669885,5.69337697 15.7519159,5.77540785 C15.8339467,5.85743873 15.8749624,5.95704822 15.8749624,6.07423526 L15.8749624,6.42579692 C15.8749624,6.54298397 15.8339467,6.64259346 15.7519159,6.72462434 C15.669885,6.80665521 15.5702755,6.84767092 15.4530885,6.84767092 L2.23436997,6.84767092 L5.18748793,9.76563271 C5.28123789,9.85938267 5.32811259,9.96485117 5.32811259,10.0820382 C5.32811259,10.1992252 5.28123789,10.2929752 5.18748793,10.3632875 L4.94139477,10.6093807 Z" id="Arrow-Back"></path>
            </g>
        </g>
    </g>
</svg>