<?xml version="1.0" encoding="UTF-8"?>
<svg width="11px" height="7px" viewBox="0 0 11 7" version="1.1" xmlns="http://www.w3.org/2000/svg" xmlns:xlink="http://www.w3.org/1999/xlink">
    <!-- Generator: Sketch 52.5 (67469) - http://www.bohemiancoding.com/sketch -->
    <title>next</title>
    <desc>Created with Sketch.</desc>
    <g id="asos-shot" stroke="none" stroke-width="1" fill="none" fill-rule="evenodd">
        <g id="asos" transform="translate(-431.000000, -505.000000)" fill="#000000">
            <g id="Group-17" transform="translate(239.000000, 69.000000)">
                <g id="Group-7" transform="translate(37.000000, 435.000000)">
                    <path d="M162.539045,1.59376766 C162.601545,1.53126769 162.667951,1.50001788 162.738263,1.50001788 C162.808576,1.50001788 162.874982,1.53126769 162.937482,1.59376766 L165.656225,4.31251118 C165.718725,4.35938606 165.749975,4.42188603 165.749975,4.50001073 C165.749975,4.57813542 165.718725,4.64063539 165.656225,4.68751028 L162.937482,7.4062538 C162.874982,7.46875377 162.808576,7.50000358 162.738263,7.50000358 C162.667951,7.50000358 162.601545,7.46875377 162.539045,7.4062538 L162.374983,7.24219169 C162.312483,7.1953168 162.281233,7.13281683 162.281233,7.05469214 C162.281233,6.97656744 162.312483,6.90625511 162.374983,6.84375514 L164.343728,4.89844728 L155.531249,4.89844728 C155.453125,4.89844728 155.386718,4.87110347 155.332031,4.81641622 C155.277344,4.76172897 155.25,4.69532264 155.25,4.61719795 L155.25,4.38282351 C155.25,4.30469881 155.277344,4.23829248 155.332031,4.18360523 C155.386718,4.12891798 155.453125,4.10157418 155.531249,4.10157418 L164.343728,4.10157418 L162.374983,2.15626632 C162.312483,2.09376635 162.281233,2.02345401 162.281233,1.94532932 C162.281233,1.86720463 162.312483,1.80470465 162.374983,1.75782977 L162.539045,1.59376766 Z" id="next"></path>
                </g>
            </g>
        </g>
    </g>
</svg>