<?xml version="1.0" encoding="UTF-8"?>
<svg width="11px" height="7px" viewBox="0 0 11 7" version="1.1" xmlns="http://www.w3.org/2000/svg" xmlns:xlink="http://www.w3.org/1999/xlink">
    <!-- Generator: Sketch 52.5 (67469) - http://www.bohemiancoding.com/sketch -->
    <title>prev</title>
    <desc>Created with Sketch.</desc>
    <g id="asos-shot" stroke="none" stroke-width="1" fill="none" fill-rule="evenodd">
        <g id="asos" transform="translate(-276.000000, -505.000000)" fill="#000000">
            <g id="Group-17" transform="translate(239.000000, 69.000000)">
                <g id="Group-7" transform="translate(37.000000, 435.000000)">
                    <path d="M3.46092984,7.4062538 C3.39842987,7.46875377 3.3320239,7.50000358 3.26171157,7.50000358 C3.19139924,7.50000358 3.12499326,7.46875377 3.06249329,7.4062538 L0.343749776,4.68751028 C0.281249806,4.64063539 0.25,4.57813542 0.25,4.50001073 C0.25,4.42188603 0.281249806,4.35938606 0.343749776,4.31251118 L3.06249329,1.59376766 C3.12499326,1.53126769 3.19139924,1.50001788 3.26171157,1.50001788 C3.3320239,1.50001788 3.39842987,1.53126769 3.46092984,1.59376766 L3.62499195,1.75782977 C3.68749192,1.80470465 3.71874173,1.86720463 3.71874173,1.94532932 C3.71874173,2.02345401 3.68749192,2.09376635 3.62499195,2.15626632 L1.65624665,4.10157418 L10.4687256,4.10157418 C10.5468503,4.10157418 10.6132567,4.12891798 10.6679439,4.18360523 C10.7226312,4.23829248 10.749975,4.30469881 10.749975,4.38282351 L10.749975,4.61719795 C10.749975,4.69532264 10.7226312,4.76172897 10.6679439,4.81641622 C10.6132567,4.87110347 10.5468503,4.89844728 10.4687256,4.89844728 L1.65624665,4.89844728 L3.62499195,6.84375514 C3.68749192,6.90625511 3.71874173,6.97656744 3.71874173,7.05469214 C3.71874173,7.13281683 3.68749192,7.1953168 3.62499195,7.24219169 L3.46092984,7.4062538 Z" id="prev"></path>
                </g>
            </g>
        </g>
    </g>
</svg>