<?xml version="1.0" encoding="UTF-8"?>
<svg width="6px" height="7px" viewBox="0 0 6 7" version="1.1" xmlns="http://www.w3.org/2000/svg" xmlns:xlink="http://www.w3.org/1999/xlink">
    <!-- Generator: Sketch 52.5 (67469) - http://www.bohemiancoding.com/sketch -->
    <title>Play</title>
    <desc>Created with Sketch.</desc>
    <g id="asos-shot" stroke="none" stroke-width="1" fill="none" fill-rule="evenodd">
        <g id="asos" transform="translate(-295.000000, -330.000000)" fill="#000000">
            <g id="Group-17" transform="translate(239.000000, 69.000000)">
                <g id="Group" transform="translate(35.000000, 69.000000)">
                    <path d="M26.3437382,195.269538 C26.4687379,195.33985 26.552722,195.437506 26.5956907,195.562506 C26.6386594,195.687506 26.6386594,195.812505 26.5956907,195.937505 C26.552722,196.062505 26.4687379,196.160161 26.3437382,196.230473 L22.218748,198.667967 C22.1015608,198.738279 21.976561,198.761717 21.8437489,198.738279 C21.7109368,198.714842 21.5996089,198.652342 21.5097653,198.55078 C21.4199217,198.449218 21.375,198.328124 21.375,198.1875 L21.375,193.312511 C21.375,193.156262 21.4218749,193.029309 21.5156247,192.931653 C21.6093744,192.833997 21.7226555,192.775403 21.8554676,192.755872 C21.9882797,192.736341 22.1093733,192.761731 22.218748,192.832044 L26.3437382,195.269538 Z" id="Play"></path>
                </g>
            </g>
        </g>
    </g>
</svg>