<?xml version="1.0" encoding="UTF-8"?>
<svg width="12px" height="11px" viewBox="0 0 12 11" version="1.1" xmlns="http://www.w3.org/2000/svg" xmlns:xlink="http://www.w3.org/1999/xlink">
    <!-- Generator: Sketch 52.5 (67469) - http://www.bohemiancoding.com/sketch -->
    <title>Liked</title>
    <desc>Created with Sketch.</desc>
    <g id="asos-shot" stroke="none" stroke-width="1" fill="none" fill-rule="evenodd">
        <g id="asos" transform="translate(-156.000000, -63.000000)" fill="#000000">
            <g id="Group-16" transform="translate(26.000000, 50.000000)">
                <g id="Group-15">
                    <g id="Group-14">
                        <path d="M140.734349,14.0000215 C141.296848,14.4843954 141.67966,15.0625188 141.882784,15.7343923 C142.054659,16.3437659 142.054659,16.9648581 141.882784,17.5976691 C141.71091,18.2304801 141.414035,18.765635 140.992161,19.2031341 L136.890609,23.3749991 C136.640609,23.6249986 136.343735,23.7499982 135.999986,23.7499982 C135.656236,23.7499982 135.359362,23.6249986 135.109363,23.3749991 L131.00781,19.2031341 C130.585936,18.765635 130.289062,18.2304801 130.117187,17.5976691 C129.945313,16.9648581 129.953125,16.3437659 130.140625,15.7343923 C130.328124,15.0625188 130.703123,14.4843954 131.265622,14.0000215 C131.703121,13.6250224 132.210932,13.3906479 132.789056,13.2968981 C133.36718,13.2031484 133.941397,13.2500232 134.511708,13.4375228 C135.082019,13.6250224 135.578112,13.9297091 135.999986,14.3515831 C136.42186,13.9297091 136.917952,13.6250224 137.488263,13.4375228 C138.058574,13.2500232 138.632792,13.2031484 139.210916,13.2968981 C139.789039,13.3906479 140.29685,13.6250224 140.734349,14.0000215 Z M140.195288,18.406261 C140.476538,18.1093865 140.675756,17.7461062 140.792943,17.3164198 C140.91013,16.8867334 140.906224,16.4609531 140.781224,16.0390791 C140.656225,15.5859553 140.398413,15.1953311 140.007789,14.8672069 C139.554665,14.4922078 139.01951,14.3281457 138.402324,14.3750206 C137.785138,14.4218955 137.257795,14.671895 136.820296,15.1250188 L135.999986,15.9453293 L135.179675,15.1250188 C134.742176,14.671895 134.214834,14.4218955 133.597648,14.3750206 C132.980462,14.3281457 132.445307,14.4922078 131.992183,14.8672069 C131.601559,15.1953311 131.343747,15.5859553 131.218747,16.0390791 C131.093748,16.4609531 131.089841,16.8867334 131.207028,17.3164198 C131.324216,17.7461062 131.523434,18.1093865 131.804683,18.406261 L135.929673,22.578126 C135.976548,22.640626 136.023423,22.640626 136.070298,22.578126 L140.195288,18.406261 Z" id="Liked"></path>
                    </g>
                </g>
            </g>
        </g>
    </g>
</svg>