<?xml version="1.0" encoding="UTF-8"?>
<svg width="11px" height="13px" viewBox="0 0 11 13" version="1.1" xmlns="http://www.w3.org/2000/svg" xmlns:xlink="http://www.w3.org/1999/xlink">
    <!-- Generator: Sketch 52.5 (67469) - http://www.bohemiancoding.com/sketch -->
    <title>Basket</title>
    <desc>Created with Sketch.</desc>
    <g id="asos-shot" stroke="none" stroke-width="1" fill="none" fill-rule="evenodd">
        <g id="asos" transform="translate(-178.000000, -62.000000)" fill="#000000">
            <g id="Group-16" transform="translate(26.000000, 50.000000)">
                <g id="Group-15">
                    <g id="Group-14">
                        <path d="M160.49998,15.5000179 L162.749975,15.5000179 L162.749975,22.6250009 C162.749975,23.1406247 162.566382,23.5820297 162.199195,23.9492165 C161.832008,24.3164032 161.390603,24.4999964 160.874979,24.4999964 L154.124996,24.4999964 C153.609372,24.4999964 153.167967,24.3164032 152.80078,23.9492165 C152.433593,23.5820297 152.25,23.1406247 152.25,22.6250009 L152.25,15.5000179 L154.499995,15.5000179 C154.499995,14.9531443 154.632807,14.4492393 154.898431,13.9883027 C155.164055,13.5273662 155.527336,13.1640858 155.988272,12.8984616 C156.449209,12.6328373 156.953114,12.500025 157.499987,12.500025 C158.046861,12.500025 158.550766,12.6328373 159.011703,12.8984616 C159.472639,13.1640858 159.83592,13.5273662 160.101544,13.9883027 C160.367168,14.4492393 160.49998,14.9531443 160.49998,15.5000179 Z M157.499987,13.6250224 C156.984364,13.6250224 156.542959,13.8086155 156.175772,14.1758023 C155.808585,14.542989 155.624992,14.9843941 155.624992,15.5000179 L159.374983,15.5000179 C159.374983,14.9843941 159.19139,14.542989 158.824203,14.1758023 C158.457016,13.8086155 158.015611,13.6250224 157.499987,13.6250224 Z M161.624978,22.6250009 L161.624978,16.6250152 L160.49998,16.6250152 L160.49998,17.562513 C160.49998,17.7187627 160.445293,17.8515747 160.335918,17.9609495 C160.226543,18.0703244 160.093731,18.1250116 159.937482,18.1250116 C159.781232,18.1250116 159.64842,18.0703244 159.539045,17.9609495 C159.42967,17.8515747 159.374983,17.7187627 159.374983,17.562513 L159.374983,16.6250152 L155.624992,16.6250152 L155.624992,17.562513 C155.624992,17.7187627 155.570305,17.8515747 155.46093,17.9609495 C155.351555,18.0703244 155.218743,18.1250116 155.062493,18.1250116 C154.906244,18.1250116 154.773432,18.0703244 154.664057,17.9609495 C154.554682,17.8515747 154.499995,17.7187627 154.499995,17.562513 L154.499995,16.6250152 L153.374997,16.6250152 L153.374997,22.6250009 C153.374997,22.8281255 153.449216,23.0039064 153.597653,23.1523434 C153.74609,23.3007804 153.921871,23.3749991 154.124996,23.3749991 L160.874979,23.3749991 C161.078104,23.3749991 161.253885,23.3007804 161.402322,23.1523434 C161.550759,23.0039064 161.624978,22.8281255 161.624978,22.6250009 Z" id="Basket"></path>
                    </g>
                </g>
            </g>
        </g>
    </g>
</svg>