<?xml version="1.0" encoding="UTF-8"?>
<svg width="40px" height="12px" viewBox="0 0 40 12" version="1.1" xmlns="http://www.w3.org/2000/svg" xmlns:xlink="http://www.w3.org/1999/xlink">
    <!-- Generator: Sketch 52.5 (67469) - http://www.bohemiancoding.com/sketch -->
    <title>logo-asos</title>
    <desc>Created with Sketch.</desc>
    <defs>
        <rect id="path-1" x="0" y="0" width="40" height="12"></rect>
    </defs>
    <g id="asos-shot" stroke="none" stroke-width="1" fill="none" fill-rule="evenodd">
        <g id="asos" transform="translate(-51.000000, -63.000000)">
            <g id="Group-16" transform="translate(26.000000, 50.000000)">
                <g id="Group-15">
                    <g id="Group-14">
                        <g id="Logo/2-Asos" transform="translate(25.000000, 13.000000)">
                            <g id="asos-com">
                                <mask id="mask-2" fill="white">
                                    <use xlink:href="#path-1"></use>
                                </mask>
                                <g id="Mask"></g>
                                <g mask="url(#mask-2)" fill="#040404" fill-rule="nonzero" id="Shape">
                                    <path d="M2.79997768,12.5379794 C2.91941065,12.4941851 3.06172564,12.6073678 3.04023887,12.737329 C3.03549503,12.8925998 2.81951111,12.9716572 2.72072776,12.852218 C2.62138632,12.7592262 2.66770845,12.5692611 2.79997768,12.5379794 Z M16.3134836,12.6474653 C16.4876102,12.5103947 16.7236857,12.5229073 16.9296238,12.5547578 C16.9162295,12.6358057 16.9008818,12.7162849 16.8860922,12.7976173 C16.7554973,12.7737295 16.6039737,12.7435853 16.4890055,12.8297521 C16.3695725,12.9307066 16.3745954,13.1033246 16.3704096,13.2463671 C16.5104922,13.2494953 16.6508539,13.247789 16.7909365,13.2486422 L16.7906574,13.4934924 C16.651691,13.4943455 16.5127246,13.4940611 16.3737582,13.4940611 C16.3732001,14.0181714 16.3737582,14.5417128 16.3734792,15.0655387 C16.287253,15.0649699 16.201864,15.0655387 16.115917,15.0655387 C16.1150798,14.5422816 16.1142427,14.0190245 16.116196,13.4957674 C15.990903,13.4929236 15.86561,13.4937767 15.740038,13.4934924 C15.7394799,13.4115922 15.7394799,13.3296892 15.740038,13.247789 C15.8650519,13.247789 15.9900659,13.2483578 16.1156379,13.2460828 C16.1036388,13.0333674 16.1393571,12.7890859 16.3134836,12.6474653 Z M21.2652082,12.5348512 L21.5241656,12.5348512 C21.5241656,12.8650151 21.5224913,13.1948946 21.5258399,13.524774 C21.6662016,13.3305433 21.8930684,13.197454 22.1333296,13.2042791 C22.3342449,13.2005821 22.5555308,13.2659893 22.6741266,13.4420198 C22.813093,13.641085 22.7977453,13.8981635 22.7988615,14.1296479 L22.7988615,15.0655387 C22.7117982,15.0666762 22.6255721,15.0641168 22.5393459,15.0641168 C22.539625,14.730256 22.5407412,14.3958265 22.5387878,14.0625345 C22.5323697,13.8873571 22.5234401,13.689145 22.3959147,13.5557713 C22.2159281,13.3959504 21.9265543,13.4152882 21.7462886,13.5651558 C21.5805335,13.7002358 21.526398,13.9260326 21.5244447,14.1330604 C21.5222123,14.4436021 21.5238866,14.7541438 21.5238866,15.0641168 C21.4371024,15.0632636 21.3511553,15.067245 21.2649291,15.0649699 L21.2652082,12.5348512 Z M23.542248,12.5479327 C23.6647505,12.4796817 23.8310637,12.5974146 23.8076236,12.7390353 C23.8051122,12.885206 23.6142427,12.9611351 23.5084831,12.8701339 C23.399933,12.7907922 23.4205827,12.6039553 23.542248,12.5479327 Z M35.2748633,12.5476483 C35.3993191,12.4796817 35.5631209,12.5996896 35.5399598,12.741879 C35.5310302,12.8962968 35.3156044,12.9713728 35.2198906,12.8507961 C35.1275254,12.7651981 35.1598951,12.5937177 35.2748633,12.5476483 Z M34.2474048,12.5627204 C34.333631,12.562436 34.4195781,12.5584547 34.5063623,12.5604453 L34.5063623,15.0658231 C34.4204152,15.0652543 34.3347472,15.0658231 34.2488001,15.0663918 C34.2465677,14.2317399 34.2496372,13.3965192 34.2474048,12.5627204 Z M3.75209287,13.3737689 C3.94017189,13.2037103 4.21168657,13.1792537 4.44971537,13.2227637 C4.62384195,13.2548985 4.77062172,13.3726313 4.85573167,13.5287553 C4.77955129,13.584778 4.70113852,13.6379568 4.62216765,13.6894294 C4.50775756,13.4349103 4.15559772,13.3638156 3.94854336,13.5409836 C3.83971425,13.6365349 3.8542248,13.8375908 3.98398259,13.9058417 C4.22256948,14.038931 4.52980243,14.0002555 4.74439112,14.184533 C4.99330282,14.3847357 4.95395691,14.8320636 4.67965175,14.990747 C4.50106039,15.11758 4.27558879,15.0951141 4.06965063,15.0914172 C3.84557428,15.0865827 3.64772854,14.9395588 3.52550508,14.7558501 C3.59917401,14.7021025 3.67479629,14.6509143 3.75125572,14.6005792 C3.89887264,14.8542452 4.24238196,14.9503652 4.49324701,14.8004976 C4.63026007,14.7299716 4.68327938,14.5175406 4.56021877,14.4083391 C4.42125237,14.2908907 4.23149905,14.2832124 4.0649068,14.2345837 C3.88408304,14.1930643 3.69042304,14.0983662 3.61982364,13.9103918 C3.56429289,13.7272518 3.60224355,13.5028769 3.75209287,13.3737689 Z M5.55112178,13.506005 C5.8946311,13.099912 6.59755553,13.0987745 6.92962384,13.5213615 C6.85958254,13.5773841 6.78675075,13.6294255 6.71587231,13.6851637 C6.51691037,13.3780345 6.0467128,13.3706407 5.80533542,13.626866 C5.52489117,13.9271701 5.54219221,14.4805714 5.86561,14.7424843 C6.11870745,14.9452464 6.53169997,14.9114053 6.71949994,14.6321453 C6.79037839,14.686746 6.86181493,14.7410624 6.93129814,14.7982226 C6.78954124,14.9489433 6.60620605,15.0840233 6.39412881,15.090564 C6.18149347,15.1005173 5.95267329,15.1107549 5.76543141,14.9890408 C5.26621275,14.7035244 5.19142761,13.9337108 5.55112178,13.506005 Z M14.0512334,13.2676955 C14.1991294,13.1906289 14.3715816,13.1983071 14.5317558,13.2193511 C14.5178033,13.3072242 14.4999442,13.3931066 14.4837593,13.4804109 C14.3710236,13.4670451 14.2532649,13.4576606 14.1449939,13.4997487 C13.9331957,13.5776685 13.7939502,13.8037497 13.7908807,14.0292621 C13.7883692,14.3750668 13.7939502,14.7211559 13.7883692,15.0663918 C13.7027012,15.0652543 13.6173122,15.0641168 13.5319232,15.0641168 C13.5282956,14.4586742 13.5439223,13.8523785 13.513785,13.2472203 C13.6002902,13.2466515 13.6867954,13.2472203 13.7735796,13.2472203 C13.7738587,13.3504498 13.7735796,13.4539637 13.7719053,13.557762 C13.8402724,13.4403135 13.9251032,13.3254245 14.0512334,13.2676955 Z M19.5694274,13.3891253 C19.7563902,13.2059853 20.0390669,13.1775475 20.2837928,13.2233324 C20.4564419,13.2589413 20.6046673,13.3708273 20.6884139,13.5287553 C20.6127916,13.584778 20.5340998,13.6379568 20.4551289,13.6894294 C20.3407188,13.4360478 19.9919076,13.3646687 19.7840161,13.5381398 C19.6726755,13.6325536 19.6857908,13.8358845 19.8166648,13.9058417 C20.0672508,14.0457561 20.4007144,13.9974117 20.6122335,14.2178053 C20.7492466,14.3517478 20.7704543,14.5684444 20.7124121,14.7450437 C20.6328831,14.9705561 20.3887153,15.0948297 20.1635227,15.0942609 C19.9969305,15.0942609 19.8197343,15.1118924 19.6659783,15.0322664 C19.5395691,14.9728312 19.4374372,14.8721611 19.3579082,14.7567032 C19.4315772,14.7023869 19.5074785,14.6511987 19.5839379,14.6008636 C19.7340663,14.861639 20.0951557,14.9543465 20.3446255,14.7888381 C20.4690814,14.7112026 20.5092644,14.5104312 20.3920638,14.4080548 C20.2530974,14.2908907 20.062786,14.2834968 19.8959147,14.2345837 C19.7156491,14.1930643 19.5222681,14.0980818 19.4525059,13.9103918 C19.4000446,13.7335081 19.4315772,13.5193708 19.5694274,13.3891253 Z M27.0476616,13.5250584 C27.175187,13.3606874 27.3565688,13.2324326 27.5652975,13.210251 C27.7740261,13.1900601 28.0106597,13.2284513 28.1593928,13.3919691 C28.2880344,13.5370023 28.3206831,13.7386269 28.3234736,13.9280233 C28.3245898,14.3068159 28.3217993,14.6861773 28.3245898,15.0655387 C28.2375265,15.0632636 28.1507423,15.06952 28.0645161,15.0666762 C28.0633999,14.7203027 28.0661904,14.3744981 28.0633999,14.0292621 C28.0558656,13.8592036 28.0377274,13.6663947 27.9068534,13.5441118 C27.7045429,13.3840065 27.391729,13.4278008 27.2201139,13.614069 C27.0847751,13.7616616 27.0515683,13.9723864 27.0479406,14.1669015 C27.0462663,14.4669212 27.0493359,14.7666565 27.0468244,15.0666762 L26.7895412,15.0661074 C26.7797745,14.4603805 26.8101909,13.8529472 26.7714031,13.2489265 C26.8609778,13.2489265 26.9516687,13.2483578 27.0426387,13.2492109 C27.0482197,13.3402122 27.0487778,13.4326353 27.0476616,13.5250584 Z M32.2711798,13.5276178 C32.3992633,13.3567061 32.5879004,13.2281669 32.8008148,13.2082604 C33.0073111,13.1906289 33.2422703,13.2310107 33.3879339,13.3953817 C33.5218774,13.5486619 33.5458757,13.7625148 33.5483871,13.9593049 C33.5475499,14.3284287 33.5492242,14.6969837 33.5469919,15.0655387 C33.4607657,15.0655387 33.3759348,15.0649699 33.2897087,15.0655387 C33.2891506,14.7305404 33.2908249,14.3958265 33.2891506,14.0613969 C33.2810582,13.8825226 33.2724076,13.6774855 33.1359527,13.5461025 C32.9249916,13.3726313 32.5848309,13.4303603 32.4210291,13.6430756 C32.3038286,13.7881089 32.2759237,13.9820552 32.2734122,14.1646265 C32.272296,14.4646462 32.2739703,14.7643815 32.2731332,15.0655387 C32.186628,15.0649699 32.101239,15.0655387 32.0155709,15.0655387 C32.0049671,14.4598117 32.0345463,13.8526629 31.9971537,13.247789 L32.2669941,13.247789 C32.2734122,13.3410653 32.2734122,13.4343416 32.2711798,13.5276178 Z M36.4320795,13.5290397 C36.5741154,13.3242869 36.8149347,13.1911976 37.0632883,13.2048478 C37.2533207,13.2054166 37.4598169,13.2699706 37.5750642,13.4340572 C37.6931019,13.5944469 37.7034267,13.8031809 37.7067753,13.9959898 L37.7067753,15.0652543 C37.6199911,15.0652543 37.5346021,15.0658231 37.448934,15.0663918 C37.4441902,14.722009 37.454515,14.3767731 37.4439112,14.0323903 C37.4380511,13.8583504 37.4215872,13.6572946 37.2815046,13.5367179 C37.0646836,13.3734845 36.7289876,13.4360478 36.5696506,13.6535977 C36.4661235,13.7895308 36.4354281,13.9655613 36.4318004,14.1336292 C36.4306842,14.4441709 36.4312423,14.754997 36.4312423,15.0652543 C36.3444581,15.0669606 36.2582319,15.0641168 36.1717268,15.0652543 C36.1653086,14.459243 36.190423,13.8529472 36.1547048,13.2483578 C36.2440004,13.2483578 36.3346914,13.247789 36.4245452,13.2494953 C36.4306842,13.3424872 36.4320795,13.4357635 36.4320795,13.5290397 Z M2.72407635,13.2486422 C2.81058154,13.2463671 2.89708673,13.2489265 2.98387097,13.2500641 C2.97996428,13.8555066 2.98415002,14.4609492 2.98163858,15.0663918 C2.89569148,15.0658231 2.81002344,15.0658231 2.7243554,15.0658231 C2.7237973,14.4600961 2.72407635,13.8543691 2.72407635,13.2486422 Z M9.29595937,13.2483578 C9.39697511,13.2497797 9.49799085,13.2452296 9.59900659,13.2503484 C9.62774863,13.2821989 9.635562,13.3274151 9.65342114,13.366375 C9.82486892,13.8350647 9.99862562,14.3028738 10.1746847,14.7697847 C10.3596942,14.2621684 10.5511218,13.7565428 10.7375265,13.2486422 C10.8363099,13.247789 10.9353723,13.2483578 11.0347137,13.2483578 C10.7924992,13.853516 10.5502846,14.4589586 10.3111396,15.0658231 L10.0198125,15.0658231 C9.78066749,14.4589586 9.53845295,13.853516 9.29595937,13.2483578 Z M23.4903449,13.2483578 C23.576571,13.2483578 23.6625181,13.247789 23.7495814,13.2494953 C23.7465119,13.8552223 23.7501395,14.4603805 23.7476281,15.0663918 C23.6614019,15.0658231 23.576292,15.0652543 23.4903449,15.0658231 C23.4897868,14.4600961 23.4903449,13.8540848 23.4903449,13.2483578 Z M35.2235182,13.2483578 C35.3097444,13.2483578 35.3956915,13.247789 35.4830338,13.2494953 C35.4799643,13.8552223 35.4835919,14.4603805 35.4808014,15.0663918 C35.3945753,15.0658231 35.3091863,15.0652543 35.2235182,15.0658231 L35.2235182,13.2483578 Z M1.99882799,12.5348512 C1.9123228,12.5342825 1.82609666,12.5348512 1.73987052,12.5351356 C1.74014957,12.8689964 1.74098672,13.2028572 1.73903337,13.5364336 C1.41701083,13.1175435 0.745618931,13.0964995 0.376716151,13.4599357 C-0.011720058,13.8313344 0.00530193102,14.5465473 0.418852551,14.8920676 C0.595490568,15.0518885 0.833798415,15.1113237 1.06596718,15.0928391 C1.32715705,15.11758 1.5780221,14.9790875 1.73875433,14.7757566 C1.74014957,14.8721611 1.74042862,14.9688499 1.74042862,15.0655387 C1.82609666,15.0649699 1.91176471,15.0655387 1.99743275,15.0666762 C2.00050229,14.2229241 1.9977118,13.3788877 1.99882799,12.5348512 Z M1.55207054,14.6608676 C1.32045987,14.907424 0.902723518,14.9463839 0.636510771,14.7365123 C0.379227592,14.5363096 0.3211854,14.1504075 0.435037393,13.8546535 C0.506096953,13.6671876 0.659796285,13.524888 0.849704208,13.4707421 C1.11954459,13.3922535 1.43403282,13.4878048 1.6053689,13.7170141 C1.8154928,13.988596 1.79372698,14.4168705 1.55207054,14.6608676 Z M8.78195111,13.3965192 C8.53973658,13.2076916 8.21045876,13.1647504 7.91885255,13.2366983 C7.7193742,13.2862797 7.5434127,13.4058951 7.42186628,13.5745403 C7.21620717,13.8577817 7.18718607,14.2553433 7.32559437,14.5758383 C7.43950215,14.8323186 7.66477032,15.0195751 7.93420025,15.0817483 C8.09883916,15.0990954 8.26626856,15.1008017 8.43090747,15.0840233 C8.72307177,15.0208912 8.97700636,14.7968007 9.07467351,14.5092936 C9.21224467,14.1253822 9.11011274,13.6470569 8.78195111,13.3965192 Z M8.67786583,14.6571706 C8.45657998,14.9139647 8.03689028,14.942687 7.77514231,14.7342373 C7.52762585,14.5337502 7.46483983,14.1603608 7.57366894,13.8671662 C7.64161671,13.6775294 7.79315583,13.5315233 7.98275477,13.4730171 C8.22022547,13.4010692 8.50011162,13.4607888 8.67088961,13.6496164 C8.90891841,13.9231888 8.91366224,14.3807544 8.67786583,14.6571706 Z M12.9651747,14.2334461 C12.9821967,13.9502048 12.9182945,13.6439288 12.7112401,13.4403135 C12.4360978,13.1619066 11.9720393,13.1329 11.645552,13.3328183 C11.2599062,13.5637339 11.1231722,14.0904036 11.269952,14.5075874 C11.3657935,14.786129 11.5895581,14.9990783 11.8687912,15.0774826 C11.9977118,15.1036454 12.1305391,15.0925547 12.2616922,15.0925547 C12.5220449,15.0939766 12.7483536,14.9236336 12.9051791,14.7254216 C12.8396026,14.6682614 12.7712356,14.6142294 12.7045429,14.5593443 C12.5460431,14.7973694 12.2410425,14.9324494 11.9650631,14.8479889 C11.6963389,14.7743347 11.5132827,14.509578 11.4850988,14.2342993 C11.9784574,14.232593 12.4718161,14.2334461 12.9651747,14.2334461 Z M11.4901217,14.0116306 C11.5143989,13.7127485 11.7789374,13.4713108 12.0663579,13.4460011 C12.2449492,13.4329197 12.4400045,13.4886579 12.5560888,13.635113 C12.6465007,13.7383426 12.6744056,13.8779726 12.688079,14.0116306 C12.289039,14.0136213 11.8894408,14.0124838 11.4901217,14.0116306 Z M18.8584105,13.2489265 C18.7713472,13.2483578 18.6848421,13.2483578 18.5983369,13.2483578 L18.5986159,13.4241039 C18.2207836,13.114131 17.6107825,13.1249374 17.2695055,13.4875204 C16.8774417,13.899301 16.9494363,14.6748021 17.443074,14.9708405 C17.6531979,15.1181488 17.9166202,15.0996641 18.1588347,15.0891421 C18.3226365,15.0749232 18.4685791,14.9873345 18.598895,14.8909301 C18.5983369,14.948659 18.5983369,15.0069566 18.5986159,15.0652543 C18.6840049,15.0652543 18.7693939,15.0663918 18.8550619,15.0675293 C18.8606429,14.461518 18.8542248,13.8552223 18.8584105,13.2489265 Z M18.382911,14.7265591 C18.143487,14.9250555 17.7634223,14.9207898 17.5290211,14.7148996 C17.3015962,14.5101468 17.2441121,14.155242 17.3479183,13.872285 C17.4146281,13.6841538 17.5626459,13.5378195 17.7491908,13.4755765 C18.0017301,13.3948129 18.3075678,13.4653389 18.4747182,13.6828887 C18.7054917,13.9846146 18.678703,14.478012 18.382911,14.7265591 Z M25.899654,13.4164257 C25.6574394,13.2136636 25.3169997,13.1616222 25.0175801,13.2369826 C24.8272687,13.2867489 24.6497935,13.3950973 24.5303605,13.5552026 C24.2066637,13.9740926 24.2912155,14.6748021 24.7455073,14.9617404 C24.9634446,15.1178644 25.2402612,15.1005173 25.4930796,15.0868671 C25.7902668,15.0433571 26.0506195,14.8201197 26.1600067,14.536594 C26.3031588,14.1578014 26.2197232,13.6774855 25.899654,13.4164257 Z M25.6906463,14.7348061 C25.4593147,14.9179461 25.1052015,14.9187992 24.8730327,14.7365123 C24.6082152,14.5252189 24.5507311,14.117704 24.6899766,13.8165467 C24.7649812,13.650083 24.9070636,13.5248904 25.079529,13.4733015 C25.3175578,13.4019224 25.5991182,13.4622107 25.7679429,13.6541664 C26.0294118,13.9541861 26.0056926,14.4817089 25.6906463,14.7348061 Z M31.1686572,13.4141507 C30.9256055,13.210251 30.5840496,13.162191 30.2840719,13.2369826 C30.0703203,13.2910146 29.8774975,13.4275165 29.7589017,13.6174815 C29.4784574,14.047178 29.5903561,14.7134777 30.0426945,14.9753906 C30.2542136,15.1207082 30.5190311,15.101086 30.7609666,15.0874359 C31.0771291,15.0413665 31.3533877,14.7936725 31.4493805,14.4839839 C31.5707668,14.114007 31.474774,13.6615603 31.1686572,13.4141507 Z M31.0447595,14.6563175 C30.8293336,14.9082772 30.4235964,14.9412651 30.1607322,14.749025 C29.8908918,14.5496754 29.8239201,14.1487012 29.9480969,13.845269 C30.0186713,13.6663625 30.1649975,13.5296856 30.3460208,13.4735858 C30.5840496,13.4002161 30.8650519,13.4593669 31.0369461,13.6484788 C31.2749749,13.9229044 31.2802768,14.3796169 31.0447595,14.6563175 Z M39.971258,14.2334461 C39.9930238,13.9914397 39.9676303,13.7329394 39.8161067,13.5352961 C39.5253376,13.1240842 38.8762697,13.0979214 38.5263422,13.4440104 C38.1002344,13.8418565 38.1485099,14.6466486 38.6452171,14.9648686 C38.8631544,15.1241207 39.1424824,15.1025079 39.3955799,15.0831702 C39.612959,15.0462009 39.7873647,14.8932051 39.9285635,14.7294029 C39.863268,14.6712569 39.7967458,14.6145574 39.7290434,14.5593443 C39.5724969,14.7879849 39.2853555,14.9242024 39.0141199,14.8548139 C38.7339547,14.7899756 38.5375042,14.517825 38.5084831,14.2345837 C38.9962607,14.2320243 39.4834803,14.2337305 39.971258,14.2334461 Z M38.5126688,14.0121994 C38.5405737,13.6626978 38.8963612,13.3950973 39.2326152,13.4505512 C39.3796741,13.4696045 39.5253376,13.5452493 39.6096104,13.6735042 C39.681326,13.7710461 39.6975109,13.8936134 39.7120214,14.0113463 C39.3121442,14.0136213 38.9128251,14.0121994 38.5126688,14.0121994 Z M37.2220672,5.06507181 C36.2917178,4.73547672 35.2955129,4.65983194 34.3721397,4.30890843 C34.0696506,4.19202872 33.7688358,4.03846414 33.5492242,3.79105454 C33.2565018,3.46174382 33.1934368,2.95441194 33.3692376,2.55258462 C33.4816944,2.29579051 33.7007479,2.09985348 33.9474272,1.98098311 C34.356234,1.78589922 34.8205715,1.75689258 35.2648175,1.79187117 C35.7171559,1.82599664 36.1764706,1.97700181 36.5141199,2.29493737 C36.8068423,2.56452853 36.9907356,2.940193 37.0652417,3.33178268 C37.0766827,3.43359031 37.1481192,3.54222304 37.260576,3.53226978 C37.9847081,3.53966363 38.7082822,3.55103878 39.4326934,3.54961689 C39.5356625,3.56326707 39.6344458,3.47368773 39.6048666,3.36448625 C39.5219891,2.7761064 39.3202366,2.19967045 38.9901217,1.70712628 C38.5916397,1.10680251 37.9944748,0.660896462 37.3364773,0.395286611 C36.7287086,0.144748838 36.0740596,0.0378223879 35.4222011,0.000568757713 L34.6729546,0.000568757713 C33.8718049,0.0437943439 33.0586561,0.162380327 32.3222458,0.503350576 C31.7847974,0.749053908 31.2950664,1.13239661 30.9875544,1.6502505 C30.6850653,2.14421658 30.5673066,2.73259643 30.5608885,3.30903237 C30.1713361,2.49741512 29.5867284,1.78817425 28.8885478,1.23363548 C27.9595937,0.488562875 26.799308,0.0651227581 25.620884,0.000568757713 L25.0083715,0.000568757713 C24.1955382,0.0490499882 23.4025127,0.275536118 22.6833352,0.664593388 C21.6264268,1.24198205 20.76149,2.12611146 20.1981248,3.20494971 C20.1060386,2.75108106 19.9620493,2.30346874 19.726811,1.90420082 C19.4159504,1.35876218 18.9477062,0.913140508 18.4043978,0.613405193 C17.6869628,0.211009112 16.8657216,0.0491975422 16.0553633,0.000568757713 L15.2751423,0.000568757713 C14.6871861,0.0358317359 14.0975555,0.105504556 13.5319232,0.278975658 C12.875879,0.476903342 12.2390892,0.819011107 11.8023775,1.36757792 C11.5526286,1.67300081 11.389664,2.04070267 11.2825092,2.42034845 C11.2827883,1.79528372 11.2819511,1.16993462 11.2833464,0.54458551 C11.2822302,0.475765827 11.2819511,0.395570989 11.2233508,0.348932857 C11.1747963,0.29347898 11.0974997,0.298029042 11.0310861,0.296607147 C10.3761581,0.299735315 9.720951,0.294900874 9.06602299,0.298882178 C8.96779775,0.292910222 8.88882688,0.384764593 8.88575734,0.480315889 C8.87543253,0.660043326 8.88938498,0.840339521 8.88185065,1.02035134 C8.88770073,1.0630941 8.86734662,1.10514352 8.83050564,1.12642465 C8.76353388,1.09741801 8.70521264,1.05220177 8.6457752,1.0101137 C7.85550843,0.444199774 6.92488001,0.0602883176 5.95546378,0 L5.43782788,0 C4.91182052,0.0301441588 4.38776649,0.121998529 3.88938498,0.297744663 C3.02237973,0.602030039 2.24160063,1.13723105 1.60564795,1.80694325 C0.857796629,2.57249114 0.326487331,3.5601389 0.120270119,4.6214408 C0.0546936042,4.93823884 0.0226029691,5.26015571 0,5.58235695 L0,6.23927211 C0.0390668601,6.96472257 0.18724188,7.68818239 0.481080478,8.35249139 C0.946255162,9.40412441 1.73010381,10.2987803 2.67328943,10.929817 C3.57489675,11.5327001 4.65928117,11.8256104 5.73389887,11.8130977 C6.80851658,11.823051 7.86136846,11.4089953 8.70242215,10.73843 C8.74902333,10.7065796 8.83413327,10.6167158 8.87599062,10.7020295 C8.8969193,10.9113323 8.87236299,11.1226258 8.88603639,11.3330662 C8.88910593,11.4263425 8.96723965,11.5179124 9.06295345,11.5142155 C9.74327492,11.5162062 10.4235964,11.5164906 11.1036388,11.5142155 C11.2080031,11.5176281 11.2908807,11.413261 11.2822302,11.3103159 C11.2855787,10.69492 11.2808349,10.0795242 11.2841835,9.46412834 C11.4850988,9.89894362 11.7446144,10.3110086 12.0923094,10.6397505 C12.6746847,11.2073707 13.4465342,11.5315626 14.2298248,11.6825678 C14.8827994,11.8133821 15.5514008,11.8258947 16.2144213,11.8085476 C16.9153923,11.7761284 17.6172006,11.6683489 18.2824534,11.4354426 C18.8112513,11.2511651 19.3188414,10.9798676 19.7309968,10.5916905 C20.1288242,10.2165229 20.4090817,9.72998582 20.5366112,9.19311529 C20.7122431,9.4539472 20.9062271,9.70143874 21.1170332,9.93363784 C21.8860922,10.7913245 22.9135506,11.4024546 24.026119,11.6555518 C25.2885367,11.9498839 26.6533653,11.8438106 27.8273245,11.2705028 C28.9264985,10.7389988 29.8448488,9.84064595 30.438386,8.76029067 C30.6013506,9.40611506 30.8929568,10.0294735 31.3503181,10.5117801 C31.7387543,10.932092 32.2315549,11.2423493 32.7611899,11.4419833 C33.6767496,11.7920537 34.6707222,11.8401137 35.6387432,11.8074101 C36.435149,11.7664596 37.2360196,11.6296733 37.9757785,11.3179941 C38.5464338,11.0771252 39.0841612,10.7171016 39.4580868,10.2089166 C39.7840161,9.77068875 39.9584217,9.23122206 40,8.68635217 L40,8.16707638 C39.9394464,7.42456319 39.6344458,6.69769083 39.106206,6.17642438 C38.5885702,5.64378279 37.9124344,5.30252816 37.2220672,5.06507181 Z M8.35361089,8.13750098 C8.04532448,8.70297694 7.55582314,9.14339929 6.96701641,9.38507102 C6.21888604,9.69305332 5.35439223,9.73571015 4.59593705,9.44024052 C3.93291662,9.18913399 3.37091193,8.68777407 3.01931019,8.06441561 C2.58566804,7.30654596 2.44753879,6.40364309 2.51144101,5.53685634 C2.58399375,4.65983194 2.91215537,3.7862201 3.51629646,3.14523015 C3.9544436,2.67922591 4.52949706,2.37118465 5.15459315,2.267637 C5.84719277,2.15957304 6.57830115,2.25000551 7.21118428,2.56253788 C7.76174796,2.83611034 8.20320348,3.31471995 8.45853332,3.87921198 C8.73339658,4.48038888 8.82994754,5.14924795 8.84027235,5.80730063 C8.85059716,6.60555208 8.74093091,7.43195704 8.35361089,8.13750098 Z M17.7517022,9.10097654 C17.5895747,9.39331801 17.3183391,9.61172097 17.0150128,9.73627891 C16.6419243,9.89581545 16.2311642,9.92453771 15.831566,9.91117191 C15.2355174,9.89354042 14.6093314,9.73713205 14.1606206,9.3153982 C13.8140417,8.99860016 13.6136846,8.54530026 13.5335975,8.083469 C13.5243889,7.99445841 13.4649514,7.8937883 13.3650519,7.89947588 C12.671057,7.87672557 11.9765041,7.88554131 11.2825092,7.86392852 C11.2791606,6.64593388 11.2861368,5.42765485 11.2791606,4.20937583 C11.3581315,4.44853845 11.4491015,4.68627918 11.5894631,4.89586639 C11.8528854,5.30508757 12.2443911,5.6113636 12.6640808,5.83886668 C13.4501618,6.26315994 14.3308405,6.44544678 15.1953343,6.62090854 C15.8516576,6.76110731 16.5213752,6.89277472 17.1263534,7.19876637 C17.4760018,7.37849381 17.8172787,7.65946012 17.9129925,8.06469999 C17.9814793,8.4186887 17.9243156,8.78596085 17.7517022,9.10097654 Z M19.5931466,6.05129769 C19.0721621,5.57354121 18.4270008,5.26100885 17.7659337,5.04033085 C17.0641255,4.8003151 16.3282732,4.70049812 15.615024,4.50768925 C15.2371917,4.40474411 14.857685,4.28758002 14.5197567,4.08311162 C14.2686126,3.9301158 14.0428619,3.70574088 13.9502177,3.4162432 C13.8413885,3.08010739 13.872363,2.68709581 14.0741154,2.3927637 C14.2465677,2.13255704 14.5284072,1.96989234 14.8183391,1.88088176 C15.2126353,1.76485518 15.6309298,1.75774571 16.036667,1.80836515 C16.4546824,1.86296589 16.8704655,2.0296119 17.1718384,2.33702544 C17.4413997,2.60036026 17.608271,2.95867762 17.6791495,3.32950765 C17.6917067,3.42676522 17.7525393,3.53397605 17.8605313,3.53170102 C18.587454,3.53994801 19.3146557,3.54933251 20.0415783,3.5507544 C19.7159281,4.33791508 19.5738922,5.1984455 19.5931466,6.05129769 Z M28.0603304,8.05133418 C27.7796071,8.59136963 27.3255944,9.03130372 26.7928898,9.309995 C26.1806563,9.6248024 25.467128,9.7027222 24.7937828,9.59579575 C24.2278933,9.50550665 23.7002454,9.24860409 23.2757562,8.85669511 C22.8462998,8.47534306 22.556926,7.9529391 22.385869,7.40494104 C22.1765822,6.72641309 22.1269115,6.00181577 22.2069985,5.2965562 C22.3041076,4.52532074 22.5764594,3.74612268 23.1166983,3.17935562 C23.6054046,2.65447372 24.2611908,2.32359336 24.9670722,2.24573983 C25.5594932,2.17976394 26.1742382,2.26052753 26.7150352,2.52414673 C27.2909923,2.80795683 27.7804442,3.27860384 28.0781895,3.85788357 C28.3823529,4.44597904 28.5257841,5.11284746 28.5402947,5.77488144 C28.5609443,6.55635454 28.4256055,7.35688102 28.0603304,8.05133418 Z M36.8470253,9.45957828 C36.5210961,9.74651655 36.0894073,9.87306514 35.6669271,9.90491557 C35.0892957,9.93733476 34.4854336,9.88785284 33.963333,9.61285849 C33.5322023,9.39161174 33.1970644,8.99291258 33.0368903,8.52965942 C32.9643375,8.3564727 32.9475946,8.166792 32.8903896,7.98962397 C32.8306731,7.86364414 32.6746847,7.90630097 32.5644603,7.89122889 C31.9834803,7.88952262 31.4025003,7.87217551 30.8220784,7.8735974 C31.1195446,6.96017251 31.1867954,5.9784967 31.0679205,5.02639629 C31.4664025,5.55903789 32.0635674,5.8883486 32.6679875,6.12011737 C33.6725639,6.50914765 34.7544369,6.60185515 35.779942,6.91069059 C36.1717268,7.03354226 36.5657439,7.18312554 36.8891617,7.44646036 C37.1043085,7.62021584 37.2734122,7.86762544 37.3141534,8.14830738 C37.3763813,8.62634823 37.2120214,9.14249586 36.8470253,9.45957828 Z"></path>
                                </g>
                            </g>
                        </g>
                    </g>
                </g>
            </g>
        </g>
    </g>
</svg>